{"title":"X-Men.Origins.Wolverine.2009.DVDRIP.XviD-ZEKTORM","uid":5040065,"size":744710494,"categoryP":"video","categoryS":"movies","magnet":"?xt=urn:btih:d5c55bd97c9a905122ba6a7f1b48962bc59acdd4&amp;dn=X-Men.Origins.Wolverine.2009.DVDRIP.XviD-ZEKTORM&amp;tr=udp%3A%2F%2Ftracker.openbittorrent.com%3A80&amp;tr=udp%3A%2F%2Fopen.demonii.com%3A1337&amp;tr=udp%3A%2F%2Ftracker.coppersurfer.tk%3A6969&amp;tr=udp%3A%2F%2Fexodus.desync.com%3A6969","seeders":0,"leechers":0,"uploader":"blowley","files":5,"time":1249329051,"description":"Format                           : AVI\nFile size                        : 701 MiB\nDuration                         : 1h 47mn\nOverall bit rate                 : 913 Kbps\nSubtitles                        : English, Spanish, Portuguese (Format: VobSub)\nSource                           : DVD NTSC\n\nVideo\nFormat                           : MPEG-4 Visual\nFormat profile                   : Streaming Video@L1\nCodec ID                         : XVID\nCodec ID/Hint                    : XviD\nDuration                         : 1h 47mn\nBit rate                         : 791 Kbps\nWidth                            : 720 pixels\nHeight                           : 320 pixels\nDisplay aspect ratio             : 2.25\nFrame rate                       : 23.976 fps\nResolution                       : 24 bits\nColorimetry                      : 4:2:0\nScan type                        : Progressive\nBits/(Pixel*Frame)               : 0.143\nStream size                      : 607 MiB (87%)\nWriting library                  : XviD\n\nAudio\nFormat                           : MPEG Audio\nFormat version                   : Version 1\nFormat profile                   : Layer 3\nCodec ID                         : 55\nCodec ID/Hint                    : MP3\nDuration                         : 1h 47mn\nBit rate mode                    : Variable\nBit rate                         : 109 Kbps\nMinimum bit rate                 : 128 Kbps\nChannel(s)                       : 2 channels\nSampling rate                    : 48.0 KHz\nResolution                       : 16 bits\nStream size                      : 84.1 MiB (12%)\nWriting library                  : LAME3.98r\nEncoding settings                : ABR\n","torrent":{"xt":"urn:btih:d5c55bd97c9a905122ba6a7f1b48962bc59acdd4","amp;dn":"X-Men.Origins.Wolverine.2009.DVDRIP.XviD-ZEKTORM","amp;tr":["udp%3A%2F%2Ftracker.openbittorrent.com%3A80","udp%3A%2F%2Fopen.demonii.com%3A1337","udp%3A%2F%2Ftracker.coppersurfer.tk%3A6969","udp%3A%2F%2Fexodus.desync.com%3A6969"],"infoHash":"d5c55bd97c9a905122ba6a7f1b48962bc59acdd4","infoHashBuffer":{"type":"Buffer","data":[213,197,91,217,124,154,144,81,34,186,106,127,27,72,150,43,197,154,205,212]},"announce":[],"urlList":[]}}